<svg width="641" height="273" viewBox="0 0 801 342" fill="none" xmlns="http://www.w3.org/2000/svg">
<path fill-rule="evenodd" clip-rule="evenodd" d="M298.854 0.756258C350.565 0.462493 384.11 38.8843 431.31 51.9375C464.21 61.0363 498.588 64.869 534.406 65.8995C594.487 67.6281 675.487 24.9705 714.199 60.0764C749.56 92.1439 669.583 156.872 683.216 200.849C700.956 258.071 799.168 277.45 800.521 338.526C801.733 393.247 738.498 442.883 689.507 484.942C641.206 526.41 583.619 581.062 520.633 578.817C447.55 576.213 426.32 489.871 358.158 473.135C313.145 462.084 254.125 521.666 213.466 503.4C172.848 485.153 207.598 416.037 173.687 390.264C124.38 352.79 5.99736 386.238 -13.6801 330.765C-31.1018 281.651 75.4511 244.616 103.904 193.537C128.937 148.596 101.943 91.9299 140.716 53.5883C179.125 15.607 244.338 1.06595 298.854 0.756258Z" fill="#59C3C3"/>
</svg>
