<svg width="491" height="544" viewBox="0 0 491 544" fill="none" xmlns="http://www.w3.org/2000/svg">
<path fill-rule="evenodd" clip-rule="evenodd" d="M347.521 525.908C302.066 510.234 285.904 470.097 249.012 445.451C223.297 428.271 194.468 414.725 163.409 402.911C111.312 383.094 25.5492 391.296 3.71205 352.143C-16.235 316.38 76.2463 290.732 79.4656 252.405C83.6544 202.537 4.20441 157.293 24.0954 109.472C41.9166 66.6258 114.506 47.5447 171.988 29.9637C228.661 12.6301 298.028 -12.0812 352.495 9.02941C415.694 33.5242 404.518 107.07 458.525 141.02C494.189 163.44 566.515 135.343 595.872 162.023C625.199 188.676 570.869 231.636 591.717 262.069C622.03 306.318 737.4 316.759 735.515 365.867C733.846 409.346 627.612 405.326 585.03 436.223C547.566 463.408 551.686 515.692 504.448 533.529C457.655 551.198 395.441 542.431 347.521 525.908Z" fill="#59C3C3"/>
</svg>
