<svg width="794" height="777" viewBox="0 0 794 777" fill="none" xmlns="http://www.w3.org/2000/svg">
<path fill-rule="evenodd" clip-rule="evenodd" d="M3.29254 541.114C10.5273 492.41 65.7025 453.295 89.7225 406.246C106.466 373.45 116.541 340.288 123.166 306.312C134.278 249.322 90.4413 181.25 142.042 137.91C189.178 98.3207 262.02 161.129 321.525 139.708C398.95 111.837 438.758 15.4527 518.808 2.2826C590.529 -9.51719 646.106 40.4436 693.877 78.4479C740.976 115.917 803.943 159.575 791.729 219.405C777.557 288.826 661.544 325.661 629.622 393.194C608.541 437.791 677.743 481.841 647.872 523.738C618.031 565.592 532.789 546.285 494.096 583.282C437.838 637.074 464.127 742.189 388.702 771.547C321.923 797.54 289.202 704.279 226.613 687.397C171.545 672.544 93.482 709.035 49.0665 679.941C5.06842 651.12 -4.33453 592.459 3.29254 541.114Z" fill="#59C3C3"/>
</svg>
