<svg width="450" height="331" viewBox="0 0 450 331" fill="none" xmlns="http://www.w3.org/2000/svg">
<path fill-rule="evenodd" clip-rule="evenodd" d="M322.744 496.51C280.523 481.714 265.517 443.81 231.251 420.54C207.367 404.32 180.59 391.531 151.741 380.378C103.35 361.671 23.6834 369.429 3.40472 332.456C-15.1188 298.684 70.7913 274.449 73.7874 238.252C77.6858 191.154 3.89117 148.438 22.3752 103.272C38.9357 62.8052 106.367 44.774 159.765 28.1618C212.411 11.7833 276.85 -11.5646 327.442 8.36427C386.145 31.488 375.752 100.947 425.914 133.002C459.039 154.17 526.227 127.624 553.493 152.816C580.731 177.983 530.257 218.564 549.618 247.302C577.769 289.086 684.936 298.93 683.177 345.308C681.62 386.37 582.94 382.59 543.381 411.776C508.576 437.454 512.396 486.831 468.514 503.684C425.044 520.378 367.255 512.108 322.744 496.51Z" fill="#59C3C3"/>
</svg>
