<svg width="249" height="400" viewBox="0 0 249 709" fill="none" xmlns="http://www.w3.org/2000/svg">
<path fill-rule="evenodd" clip-rule="evenodd" d="M1.79793 486.017C7.22031 441.509 54.9047 406.706 75.0917 364.036C89.163 334.293 97.3752 304.086 102.543 273.068C111.21 221.039 71.4362 157.806 115.903 119.061C156.521 83.669 221.654 142.63 273.476 124.129C340.905 100.055 374.009 12.4622 444.021 1.9147C506.749 -7.53523 556.483 39.3204 599.138 75.0673C641.192 110.311 697.293 151.53 687.712 206.141C676.594 269.506 575.467 301.061 548.734 362.357C531.08 402.836 592.661 444.533 567.24 482.368C541.845 520.166 466.657 500.844 433.399 534.02C385.044 582.257 410.121 679.112 344.477 704.587C286.358 727.142 255.86 641.03 200.602 624.363C151.983 609.699 84.1599 641.661 44.6204 614.145C5.4524 586.889 -3.91849 532.937 1.79793 486.017Z" fill="#F45B69"/>
</svg>
