<svg width="366" height="122" viewBox="0 0 366 122" fill="none" xmlns="http://www.w3.org/2000/svg">
<path fill-rule="evenodd" clip-rule="evenodd" d="M1.40474 4.17975C4.27706 -19.3964 29.5363 -37.8323 40.2296 -60.4355C47.6835 -76.191 52.0336 -92.1921 54.7709 -108.623C59.3622 -136.183 38.2933 -169.679 61.8481 -190.203C83.3642 -208.95 117.866 -177.718 145.317 -187.518C181.035 -200.27 198.571 -246.67 235.658 -252.257C268.885 -257.263 295.231 -232.443 317.825 -213.507C340.102 -194.838 369.82 -173.003 364.745 -144.075C358.856 -110.509 305.287 -93.7943 291.126 -61.3246C281.774 -39.8825 314.395 -17.7949 300.929 2.2473C287.477 22.2693 247.648 12.0342 230.031 29.608C204.416 55.1601 217.7 106.466 182.927 119.96C152.141 131.908 135.986 86.2927 106.714 77.464C80.9604 69.6961 45.0332 86.627 24.0885 72.0517C3.34057 57.6134 -1.62335 29.0344 1.40474 4.17975Z" fill="#F45B69"/>
</svg>
