<svg width="726" height="326" viewBox="0 0 726 326" fill="none" xmlns="http://www.w3.org/2000/svg">
<path fill-rule="evenodd" clip-rule="evenodd" d="M657.113 421.996C620.154 447.379 562.507 434.654 517.156 447.751C485.544 456.881 457.461 470.71 430.785 487.36C386.04 515.286 364.944 586.948 306.471 579.244C253.059 572.206 254.171 484.356 206.01 457.742C143.345 423.114 55.7635 456.25 1.52997 410.734C-47.0603 369.954 -44.8358 301.66 -46.2561 246.025C-47.6564 191.173 -53.8708 121.836 -6.58438 92.8854C48.2825 59.2942 138.855 114.24 202.503 93.7266C244.535 80.1801 235.053 6.41755 280.242 0.443104C325.386 -5.52536 360.648 63.6355 407.529 66.6202C475.692 70.9598 531.721 -11.9291 594.256 20.4349C649.623 49.0888 605.236 128.933 629.302 181.394C650.476 227.551 719.318 257.256 724.849 305.109C730.329 352.512 696.076 395.236 657.113 421.996Z" fill="#F45B69"/>
</svg>
