<svg width="380" height="325" viewBox="0 0 352 567" fill="none" xmlns="http://www.w3.org/2000/svg">
<path fill-rule="evenodd" clip-rule="evenodd" d="M0.223147 387.16C-0.166516 342.325 42.6068 301.637 57.0953 256.711C67.1945 225.395 71.4239 194.379 72.529 162.953C74.3827 110.24 26.7514 52.6925 65.8236 8.513C101.514 -31.8428 173.737 18.1829 222.726 -6.87696C286.466 -39.4834 307.943 -130.627 375.999 -150.157C436.973 -167.654 492.359 -127.637 539.285 -97.7174C585.552 -68.2191 646.52 -34.616 644.095 20.7758C641.281 85.0473 545.095 129.438 526.528 193.682C514.267 236.106 580.731 269.473 560.427 310.284C540.143 351.053 463.085 341.635 434.406 378.84C392.708 432.936 430.123 525.726 368.332 559.491C313.625 589.385 272.228 507.95 215.276 498.583C165.167 490.341 102.056 530.821 59.285 508.66C16.9158 486.708 0.633936 434.425 0.223147 387.16Z" fill="#F45B69"/>
</svg>
