<svg width="641" height="302" viewBox="0 0 641 302" fill="none" xmlns="http://www.w3.org/2000/svg">
<path fill-rule="evenodd" clip-rule="evenodd" d="M10.6878 -73.9744C33.2198 -113.962 82.4383 -124.177 114.942 -155.251C137.599 -176.91 156.188 -201.854 172.901 -229.049C200.934 -274.665 198.414 -354.486 246.938 -370.034C291.263 -384.237 314.012 -296.218 359.432 -288.82C418.53 -279.193 479.191 -347.02 534.519 -323.19C584.09 -301.839 600.695 -232.874 616.79 -177.975C632.659 -123.85 656.249 -57.1957 626.472 -9.54966C591.922 45.7345 505.189 26.9403 460.145 72.6757C430.399 102.878 457.774 172.645 423.483 196.553C389.226 220.438 342.608 165.5 304.563 181.148C249.245 203.901 227.035 308.792 168.649 301.372C116.957 294.802 130.739 197.571 97.5074 154.834C68.2694 117.232 5.58958 114.967 -11.6777 69.4599C-28.7828 24.3806 -13.0661 -31.8187 10.6878 -73.9744Z" fill="#4062BB"/>
</svg>
